<svg width="40" height="17" viewBox="0 0 40 17" fill="none" xmlns="http://www.w3.org/2000/svg">
<path d="M14.2735 7.99686C14.2735 7.66281 14.3569 7.32355 14.5239 6.97906C14.6908 6.63458 14.983 6.31619 15.4003 6.0239C15.8177 5.73161 16.3237 5.59069 16.9184 5.60112C17.5653 5.60112 18.0348 5.74205 18.327 6.0239C18.6191 6.30575 18.7704 6.61892 18.7808 6.9634C18.7808 7.29745 18.6921 7.54276 18.5148 7.69935C18.3374 7.85593 18.1391 7.93944 17.92 7.94988C17.7844 7.94988 17.6592 7.90813 17.5444 7.82461C17.4297 7.7411 17.3671 7.6054 17.3566 7.4175C17.3566 7.25047 17.4036 7.10433 17.4975 6.97906C17.5914 6.85379 17.6801 6.75984 17.7635 6.69721C17.847 6.63458 17.9148 6.60326 17.967 6.60326C17.9774 6.60326 17.9826 6.59804 17.9826 6.5876C17.9826 6.55629 17.9461 6.50931 17.8731 6.44668C17.8001 6.38404 17.6696 6.32663 17.4818 6.27444C17.294 6.22224 17.0906 6.19092 16.8715 6.18048C16.3706 6.18048 16.0055 6.31619 15.7759 6.5876C15.5464 6.85901 15.4264 7.13565 15.416 7.4175C15.416 7.67847 15.5151 7.86115 15.7133 7.96554C15.9116 8.06993 16.1985 8.15866 16.5741 8.23173C16.9497 8.3048 17.221 8.3831 17.3879 8.46661C18.0765 8.76934 18.4209 9.2704 18.4209 9.96981C18.4209 10.2621 18.3635 10.5544 18.2487 10.8467C18.1339 11.139 17.9618 11.4313 17.7322 11.7235C17.5027 12.0158 17.174 12.2455 16.7463 12.4125C16.3185 12.5795 15.8281 12.6683 15.2751 12.6787C14.4717 12.6787 13.9031 12.5273 13.5692 12.2246C13.2353 11.9219 13.0632 11.567 13.0527 11.1598C13.0527 10.7527 13.1623 10.4604 13.3814 10.283C13.6005 10.1055 13.83 10.0168 14.07 10.0168C14.2265 10.0168 14.3726 10.0638 14.5082 10.1577C14.6439 10.2517 14.7169 10.4135 14.7273 10.6431C14.7273 10.9145 14.6334 11.1442 14.4456 11.3321C14.2578 11.52 14.0961 11.6139 13.9605 11.6139C13.9396 11.6244 13.9239 11.6296 13.9135 11.6296C13.9031 11.6296 13.8979 11.64 13.8979 11.6609C13.9083 11.6922 13.95 11.734 14.0231 11.7862C14.0961 11.8384 14.2578 11.9062 14.5082 11.9897C14.7586 12.0733 15.0456 12.1098 15.369 12.0994C15.7446 12.0994 16.0681 12.0419 16.3393 11.9271C16.6106 11.8123 16.8089 11.6661 16.9341 11.4887C17.0593 11.3112 17.1479 11.1494 17.2001 11.0033C17.2523 10.8571 17.2784 10.7266 17.2784 10.6118C17.2784 10.3195 17.1688 10.1003 16.9497 9.95415C16.7306 9.80801 16.4802 9.71928 16.1985 9.68796C15.9168 9.65664 15.609 9.57835 15.2751 9.45309C14.9412 9.32782 14.696 9.14514 14.5395 8.90504C14.3622 8.64407 14.2735 8.34134 14.2735 7.99686Z" fill="black"/>
<path d="M22.1532 7.82213C22.131 7.82213 22.1015 7.82213 22.0646 7.82213C21.8802 7.82213 21.7696 7.81844 21.7327 7.81106C21.6958 7.80368 21.6774 7.76309 21.6774 7.68929C21.6774 7.49002 21.7179 7.36824 21.7991 7.32396C21.8138 7.31658 22.1716 7.31289 22.8724 7.31289C23.4404 7.31289 23.7649 7.31289 23.8461 7.31289C23.9272 7.31289 23.9789 7.33503 24.001 7.37931C25.5575 11.0399 26.3504 12.9182 26.38 13.0142L26.9775 10.6562C27.3684 9.09893 27.5639 8.26864 27.5639 8.16532C27.5639 7.96605 27.3278 7.85165 26.8557 7.82213C26.6787 7.82213 26.5902 7.78154 26.5902 7.70036C26.5902 7.6856 26.5976 7.64131 26.6123 7.56751C26.6418 7.44943 26.6639 7.37931 26.6787 7.35717C26.6935 7.33503 26.7303 7.32027 26.7894 7.31289C26.8115 7.31289 26.9258 7.31658 27.1324 7.32396C27.3389 7.33134 27.645 7.33872 28.0508 7.3461C28.4196 7.3461 28.6999 7.34241 28.8917 7.33503C29.0835 7.32765 29.1941 7.32396 29.2236 7.32396C29.3343 7.32396 29.3896 7.36086 29.3896 7.43467C29.3896 7.59703 29.3601 7.70774 29.3011 7.76678C29.2863 7.80368 29.2052 7.82213 29.0577 7.82213C28.5339 7.85165 28.2057 7.99926 28.0729 8.26495L26.4242 14.7965C26.4095 14.8482 26.332 14.874 26.1918 14.874C26.0886 14.874 26.0259 14.8666 26.0037 14.8519C25.9816 14.8297 25.5058 13.7116 24.5764 11.4975L23.1711 8.18746L22.4519 11.0658C21.9724 12.9551 21.7327 13.933 21.7327 13.9995C21.7696 14.243 22.0351 14.3648 22.5294 14.3648H22.64C22.6843 14.4017 22.7064 14.4312 22.7064 14.4533C22.7064 14.4755 22.699 14.5456 22.6843 14.6637C22.6548 14.7596 22.6179 14.8297 22.5736 14.874H22.4298C22.2011 14.8593 21.8028 14.8519 21.2348 14.8519C21.0282 14.8519 20.8401 14.8519 20.6705 14.8519C20.5008 14.8519 20.3643 14.8519 20.2611 14.8519C20.1578 14.8519 20.0951 14.8556 20.073 14.863C19.9623 14.863 19.907 14.8297 19.907 14.7633C19.907 14.7338 19.918 14.6748 19.9402 14.5862C19.9623 14.4976 19.9807 14.446 19.9955 14.4312C20.0103 14.3869 20.0951 14.3648 20.25 14.3648C20.7516 14.3426 21.0762 14.1987 21.2237 13.933C21.2532 13.8888 21.5151 12.8666 22.0093 10.8665L22.7617 7.85534C22.747 7.84796 22.5441 7.83689 22.1532 7.82213Z" fill="black"/>
<path d="M31.9786 7.82213C31.9565 7.82213 31.927 7.82213 31.8901 7.82213C31.7057 7.82213 31.595 7.81844 31.5581 7.81106C31.5212 7.80368 31.5028 7.76309 31.5028 7.68929C31.5028 7.49002 31.5434 7.36824 31.6245 7.32396C31.6393 7.31658 31.997 7.31289 32.6978 7.31289C33.2658 7.31289 33.5904 7.31289 33.6715 7.31289C33.7527 7.31289 33.8043 7.33503 33.8264 7.37931C35.3829 11.0399 36.1759 12.9182 36.2054 13.0142L36.8029 10.6562C37.1939 9.09893 37.3893 8.26864 37.3893 8.16532C37.3893 7.96605 37.1533 7.85165 36.6812 7.82213C36.5041 7.82213 36.4156 7.78154 36.4156 7.70036C36.4156 7.6856 36.423 7.64131 36.4378 7.56751C36.4673 7.44943 36.4894 7.37931 36.5041 7.35717C36.5189 7.33503 36.5558 7.32027 36.6148 7.31289C36.6369 7.31289 36.7513 7.31658 36.9578 7.32396C37.1643 7.33134 37.4705 7.33872 37.8762 7.3461C38.245 7.3461 38.5253 7.34241 38.7171 7.33503C38.9089 7.32765 39.0196 7.32396 39.0491 7.32396C39.1597 7.32396 39.215 7.36086 39.215 7.43467C39.215 7.59703 39.1855 7.70774 39.1265 7.76678C39.1118 7.80368 39.0306 7.82213 38.8831 7.82213C38.3594 7.85165 38.0311 7.99926 37.8983 8.26495L36.2496 14.7965C36.2349 14.8482 36.1574 14.874 36.0173 14.874C35.914 14.874 35.8513 14.8666 35.8292 14.8519C35.8071 14.8297 35.3313 13.7116 34.4018 11.4975L32.9966 8.18746L32.2773 11.0658C31.7979 12.9551 31.5581 13.933 31.5581 13.9995C31.595 14.243 31.8606 14.3648 32.3548 14.3648H32.4655C32.5097 14.4017 32.5318 14.4312 32.5318 14.4533C32.5318 14.4755 32.5245 14.5456 32.5097 14.6637C32.4802 14.7596 32.4433 14.8297 32.3991 14.874H32.2552C32.0265 14.8593 31.6282 14.8519 31.0602 14.8519C30.8537 14.8519 30.6656 14.8519 30.4959 14.8519C30.3262 14.8519 30.1898 14.8519 30.0865 14.8519C29.9832 14.8519 29.9205 14.8556 29.8984 14.863C29.7877 14.863 29.7324 14.8297 29.7324 14.7633C29.7324 14.7338 29.7435 14.6748 29.7656 14.5862C29.7877 14.4976 29.8062 14.446 29.8209 14.4312C29.8357 14.3869 29.9205 14.3648 30.0754 14.3648C30.577 14.3426 30.9016 14.1987 31.0491 13.933C31.0787 13.8888 31.3405 12.8666 31.8348 10.8665L32.5872 7.85534C32.5724 7.84796 32.3696 7.83689 31.9786 7.82213Z" fill="black"/>
<path d="M0.360436 10.3419C0.297834 10.3419 0.224798 10.3001 0.141329 10.2166C0.0578594 10.1331 0.0109079 10.06 0.000474258 9.99739C-0.00995941 9.93476 0.151762 9.77817 0.48564 9.52764C0.819517 9.27711 1.16383 9.01613 1.51857 8.74472C1.87332 8.47331 2.07156 8.32195 2.11329 8.29063C2.13416 8.26975 2.16024 8.25931 2.19154 8.25931H2.20719C2.2698 8.25931 2.34283 8.34804 2.4263 8.5255C2.50977 8.70297 2.79148 9.31364 3.27143 10.3575C3.46967 10.8064 3.63139 11.1666 3.75659 11.438L5.08689 14.3348C5.09732 14.3348 5.63987 13.223 6.71454 10.9995C7.78921 8.77604 8.86387 6.53689 9.93854 4.28208C11.0132 2.02728 11.5714 0.873777 11.6131 0.821583C11.6757 0.675438 11.7801 0.602365 11.9262 0.602365C11.9992 0.602365 12.0618 0.633682 12.114 0.696316C12.1661 0.758949 12.2026 0.821583 12.2235 0.884216V0.978167L8.57695 8.54116L4.89908 16.1511C4.85735 16.2242 4.75823 16.2607 4.60172 16.2607C4.50782 16.2607 4.44522 16.2451 4.41392 16.2138C4.39305 16.1929 3.8818 15.0864 2.88017 12.8942L1.37772 9.60593L1.12731 9.77817C0.970805 9.90344 0.809083 10.0287 0.642145 10.154C0.475206 10.2792 0.381303 10.3419 0.360436 10.3419Z" fill="black"/>
<path d="M40.0001 1.54004H12.2236V0.600536H40.0001V1.54004Z" fill="black"/>
</svg>
